<?xml version="1.0" standalone="no"?>
<!DOCTYPE svg PUBLIC "-//W3C//DTD SVG 20010904//EN"
 "http://www.w3.org/TR/2001/REC-SVG-20010904/DTD/svg10.dtd">
<svg version="1.0" xmlns="http://www.w3.org/2000/svg"
 width="512.000000pt" height="512.000000pt" viewBox="0 0 512.000000 512.000000"
 preserveAspectRatio="xMidYMid meet">
<metadata>
Created by potrace 1.11, written by Peter Selinger 2001-2013
</metadata>
<g transform="translate(0.000000,512.000000) scale(0.100000,-0.100000)"
fill="#000000" stroke="none">
<path d="M120 5077 c-50 -26 -84 -70 -102 -129 -23 -76 24 -178 97 -213 44
-20 100 -23 540 -29 176 -3 334 -9 350 -14 54 -17 65 -24 65 -38 0 -8 4 -14
10 -14 9 0 40 -51 41 -67 0 -5 8 -16 16 -25 9 -10 13 -18 9 -18 -3 0 0 -15 8
-34 8 -19 12 -37 8 -40 -3 -3 1 -6 8 -6 7 0 11 -3 7 -6 -3 -3 1 -23 8 -45 8
-22 14 -40 14 -42 0 -3 6 -26 20 -68 6 -19 11 -43 11 -52 0 -9 4 -17 8 -17 5
0 9 -6 10 -12 0 -7 3 -24 7 -38 4 -14 8 -33 8 -42 1 -10 4 -18 7 -18 4 0 7 -7
8 -15 1 -8 3 -22 4 -30 1 -8 5 -15 10 -15 5 0 7 -4 4 -9 -4 -5 -1 -22 6 -38 6
-15 10 -32 9 -37 -1 -4 3 -14 10 -22 6 -7 8 -18 4 -24 -3 -5 -1 -10 4 -10 6 0
10 -3 9 -7 -2 -9 11 -60 20 -83 3 -8 7 -19 8 -25 1 -5 3 -12 4 -15 1 -3 3 -12
5 -20 3 -13 53 -179 75 -252 4 -14 6 -29 2 -32 -3 -3 -1 -6 5 -6 5 0 10 -6 11
-12 1 -15 10 -53 12 -53 1 0 3 -7 5 -16 3 -16 33 -117 58 -199 6 -19 12 -38
13 -42 1 -5 3 -10 4 -13 1 -3 4 -9 5 -15 1 -5 4 -13 5 -17 1 -5 3 -12 4 -18 1
-5 5 -17 8 -25 12 -31 53 -185 50 -192 -1 -5 2 -8 6 -8 5 0 9 -6 10 -12 1 -15
10 -53 12 -53 1 0 3 -7 5 -15 1 -8 17 -62 34 -120 18 -58 33 -112 35 -120 2
-8 10 -35 17 -60 7 -25 13 -48 15 -52 1 -5 2 -9 4 -10 1 -2 3 -10 5 -18 16
-65 61 -206 67 -208 5 -2 6 -7 4 -11 -3 -4 20 -90 50 -192 31 -101 57 -188 58
-194 2 -5 5 -17 8 -25 15 -42 60 -197 61 -207 0 -7 4 -13 9 -13 5 0 7 -4 4 -8
-2 -4 4 -35 15 -67 12 -33 22 -64 23 -70 24 -107 85 -231 153 -312 77 -92 198
-203 222 -203 6 0 11 -4 11 -10 0 -5 5 -10 10 -10 6 0 27 -10 48 -23 38 -24
111 -55 147 -64 37 -8 170 -16 307 -17 85 -1 138 -5 138 -11 0 -7 3 -7 8 0 9
13 145 14 154 0 5 -7 8 -7 8 0 0 12 109 13 128 1 7 -4 12 -3 12 3 0 10 18 10
36 -2 6 -3 14 -3 18 0 10 10 148 11 169 1 9 -5 17 -5 17 -1 0 5 20 9 45 9 25
0 45 -5 45 -11 0 -7 3 -7 8 0 9 13 95 13 104 0 5 -6 8 -6 8 1 0 6 17 11 40 10
22 0 40 -5 40 -9 0 -5 6 -5 13 0 19 12 57 11 57 -1 0 -8 3 -8 8 0 8 12 82 14
82 1 0 -4 6 -5 13 0 18 11 51 10 59 -2 5 -7 8 -7 8 1 0 11 108 13 126 1 6 -3
14 -3 18 1 7 6 25 8 127 11 81 2 149 85 149 183 0 72 -10 97 -55 141 -43 42
-63 47 -230 52 -158 5 -706 7 -710 3 -2 -2 -74 -1 -160 2 -86 3 -158 3 -160 1
-7 -6 -467 3 -480 10 -6 3 -23 6 -39 7 -15 1 -38 8 -51 14 -12 7 -38 21 -56
32 -44 24 -154 141 -175 186 -33 68 -53 135 -42 141 10 6 307 9 1181 11 257 1
470 5 473 10 3 4 9 6 14 3 5 -3 21 0 37 7 15 6 31 11 36 10 4 -1 7 1 7 6 0 4
15 16 33 25 17 10 43 35 56 55 40 61 120 220 114 226 -4 3 -1 6 5 6 7 0 12 4
12 10 0 5 24 59 54 120 30 60 51 110 48 110 -3 0 2 8 11 18 8 9 16 21 16 25 0
4 11 31 24 60 14 29 36 77 50 107 13 30 48 104 77 165 29 60 83 177 120 260
74 164 114 251 166 363 19 41 34 76 34 78 0 2 16 37 34 79 44 93 55 155 53
275 -2 78 -7 104 -27 144 -27 54 -112 150 -123 140 -4 -4 -7 -2 -7 4 0 7 -4
12 -9 12 -5 0 -26 7 -47 16 -45 19 -125 25 -354 27 -97 1 -168 6 -172 12 -5 7
-8 7 -8 0 0 -11 -50 -12 -68 -1 -7 4 -12 4 -12 -1 0 -4 -22 -8 -50 -8 -27 0
-50 4 -50 8 0 4 -8 3 -18 -2 -10 -5 -24 -6 -31 -2 -7 5 -28 5 -47 1 -20 -5
-34 -4 -34 2 0 5 -5 6 -12 2 -15 -10 -99 -11 -105 -1 -2 4 -9 4 -16 0 -16 -10
-57 -10 -57 0 0 4 -8 4 -17 -1 -10 -5 -29 -6 -43 -2 -14 4 -32 3 -41 -1 -8 -4
-21 -4 -28 1 -8 4 -25 5 -40 1 -14 -4 -37 -5 -51 -1 -14 4 -32 3 -41 -1 -8 -4
-21 -4 -28 1 -8 4 -25 5 -40 1 -14 -4 -37 -5 -51 -1 -14 4 -32 3 -41 -1 -8 -4
-21 -4 -28 1 -8 4 -25 5 -40 1 -14 -4 -37 -5 -51 -1 -14 4 -32 3 -41 -1 -8 -4
-21 -4 -28 1 -8 4 -25 5 -40 1 -14 -4 -37 -5 -51 -1 -14 4 -33 3 -42 -2 -11
-5 -18 -5 -18 1 0 7 -9 7 -25 1 -17 -6 -25 -6 -25 1 0 6 -5 7 -12 3 -16 -10
-148 -12 -148 -2 0 5 -8 5 -17 0 -22 -10 -94 -9 -110 1 -7 5 -13 5 -13 0 0
-12 -174 -10 -182 2 -5 6 -8 6 -8 0 0 -11 -79 -13 -96 -2 -6 3 -14 3 -18 -1
-4 -3 -154 -7 -334 -8 -180 -1 -331 -3 -337 -4 -28 -7 -45 22 -61 103 -1 4 -3
9 -4 12 -1 3 -3 9 -4 14 0 5 -4 13 -8 17 -5 4 -8 19 -8 34 0 15 -3 30 -7 34
-5 4 -8 11 -9 14 0 4 -6 27 -13 52 -7 25 -14 50 -15 55 -1 6 -4 15 -8 20 -6
10 -20 71 -19 80 1 3 -6 19 -15 36 -8 17 -13 33 -10 36 3 3 -1 17 -8 32 -7 14
-23 64 -36 111 -13 47 -27 89 -32 94 -4 6 -8 20 -8 33 0 13 -4 23 -10 23 -5 0
-10 7 -10 15 0 16 -63 124 -95 164 -62 75 -166 145 -268 182 -60 21 -79 22
-512 26 l-451 4 -44 -24z m2630 -1746 l-2 -176 -359 1 c-207 0 -363 4 -367 10
-9 9 -31 75 -37 109 -2 11 -4 20 -5 20 -1 0 -3 7 -5 15 -2 8 -15 51 -30 95
-22 68 -24 81 -11 90 9 7 153 11 415 12 l402 0 -1 -176z m782 7 c2 -94 -1
-172 -6 -176 -12 -7 -517 -9 -521 -1 -4 5 -5 67 -5 255 l-1 91 265 0 265 0 3
-169z m1168 148 c-12 -30 -51 -118 -99 -219 -22 -48 -41 -92 -41 -97 0 -13 40
-11 -388 -13 l-373 -2 -5 22 c-3 12 -3 27 1 32 3 6 0 11 -7 11 -8 0 -9 3 -3 8
6 4 10 55 10 117 0 62 -4 113 -10 117 -6 5 -5 8 3 8 7 0 10 5 7 10 -3 6 -4 14
-1 19 3 5 210 8 460 8 l454 0 -8 -21z m-1952 -755 l-3 -166 -268 0 -267 0 -41
125 c-23 69 -43 134 -46 145 -16 67 -51 60 307 61 l321 0 -3 -165z m782 129
c1 -19 2 -92 3 -163 1 -70 0 -128 -3 -128 -20 -5 -514 -3 -522 2 -8 5 -11 56
-7 109 1 8 0 31 -1 50 0 19 -1 64 0 100 l1 66 265 0 264 0 0 -36z m886 28 c3
-4 -13 -46 -36 -95 -23 -48 -42 -92 -43 -98 -1 -5 -4 -12 -7 -15 -3 -3 -16
-29 -29 -57 l-24 -53 -66 -1 c-309 -4 -404 -3 -412 1 -5 3 -8 43 -6 88 1 49
-2 82 -8 83 -7 0 -7 2 0 5 6 2 9 34 8 71 -1 37 0 70 2 73 5 8 613 6 621 -2z
m-1668 -758 l-3 -175 -168 0 c-180 0 -180 0 -193 55 -3 14 -9 34 -14 45 -8 18
-80 241 -80 247 0 2 104 3 230 3 l231 0 -3 -175z m762 171 l25 -1 -2 -127 c-1
-71 -2 -149 -3 -174 l0 -47 -260 0 c-143 0 -262 4 -265 8 -4 7 -7 49 -4 80 1
8 0 31 0 50 -3 60 -1 202 3 209 3 5 388 6 506 2z m636 -3 c2 -3 -4 -23 -15
-44 -11 -21 -22 -46 -25 -54 -3 -8 -10 -22 -15 -30 -14 -21 -59 -123 -63 -140
-2 -8 -9 -21 -16 -28 -7 -8 -10 -17 -8 -20 11 -18 -28 -28 -116 -29 l-97 -1 2
74 c1 44 -2 74 -8 75 -7 0 -7 2 0 5 6 2 9 43 8 98 -1 79 2 95 15 98 25 5 332
1 338 -4z"/>
<path d="M2758 715 c-2 -2 -23 -5 -48 -8 -54 -6 -110 -25 -110 -38 0 -5 -6 -9
-13 -9 -26 0 -96 -80 -129 -147 -30 -61 -33 -76 -33 -153 0 -108 30 -177 109
-255 70 -68 138 -95 241 -95 106 0 174 28 248 101 77 77 98 128 101 238 1 47
0 93 -4 101 -51 114 -122 210 -157 210 -7 0 -13 5 -13 10 0 6 -3 9 -7 8 -5 -1
-21 4 -38 11 -40 17 -138 34 -147 26z"/>
<path d="M3870 704 c-30 -8 -75 -29 -100 -46 -42 -30 -105 -93 -105 -107 0 -3
-8 -18 -18 -32 -10 -15 -22 -42 -28 -60 -9 -33 -13 -139 -6 -169 23 -97 58
-150 145 -221 65 -54 228 -76 322 -43 54 19 127 71 160 116 31 41 60 104 52
112 -3 3 -1 6 4 6 6 0 11 15 12 33 2 17 4 40 6 50 6 40 -14 130 -39 178 -77
148 -245 224 -405 183z"/>
</g>
</svg>
